<?xml version="1.0" standalone="no"?><!DOCTYPE svg PUBLIC "-//W3C//DTD SVG 1.1//EN" "http://www.w3.org/Graphics/SVG/1.1/DTD/svg11.dtd"><svg xmlns:xlink="http://www.w3.org/1999/xlink" xmlns="http://www.w3.org/2000/svg" version="1.1" width="16.046875" height="16" viewBox="0 0 16.046875 16"><defs><style type="text/css"><![CDATA[

]]></style></defs><g class="transform-group"><g transform="scale(0.015625, 0.015625)"><path d="M272.11328 686.592c0 0 328.128-441.216 565.376-561.728 0 0 139.136-31.488 174.4 0 0 0 51.776 50.048-37.056 90.816 0 0-400.512 239.168-556.224 535.808 0 0-94.528 170.496-163.136 161.28-68.608-9.28-81.6-14.848-128-85.248-46.336-70.528-96.384-216.96-122.304-241.024-25.984-24.128 50.048-111.296 137.216-87.168C229.48928 523.456 272.11328 686.592 272.11328 686.592" fill="#ecf0f1"></path></g></g></svg>