<?xml version="1.0" standalone="no"?><!DOCTYPE svg PUBLIC "-//W3C//DTD SVG 1.1//EN" "http://www.w3.org/Graphics/SVG/1.1/DTD/svg11.dtd"><svg xmlns:xlink="http://www.w3.org/1999/xlink" xmlns="http://www.w3.org/2000/svg" version="1.1" width="16" height="16" viewBox="0 0 16 16"><defs><style type="text/css"><![CDATA[

]]></style></defs><g class="transform-group"><g transform="scale(0.015625, 0.015625)"><path d="M512.033257 514.593058c-0.028653-1.727341-0.065492-3.452635-0.065492-5.186116C511.967766 509.406942 511.951393 511.225357 512.033257 514.593058zM512.000512 985.325166c-63.890122 0-125.878942-12.517081-184.246281-37.204343-56.365752-23.840988-106.98257-57.966203-150.445454-101.429087s-77.588099-94.080725-101.429087-150.446477c-24.687262-58.366316-37.204343-120.355135-37.204343-184.245258s12.517081-125.878942 37.204343-184.246281c23.840988-56.365752 57.966203-106.98257 101.429087-150.445454s94.080725-77.588099 150.445454-101.429087c58.367339-24.687262 120.356159-37.204343 184.246281-37.204343 63.889099 0 125.877919 12.517081 184.245258 37.204343 56.364729 23.840988 106.98257 57.966203 150.445454 101.429087s77.588099 94.080725 101.429087 150.445454c24.687262 58.367339 37.204343 120.356159 37.204343 184.246281s-12.517081 125.878942-37.204343 184.246281c-23.840988 56.364729-57.966203 106.98257-101.429087 150.445454s-94.080725 77.588099-150.445454 101.429087C637.87843 972.807061 575.889611 985.325166 512.000512 985.325166zM512.000512 79.607082c-238.422158 0-432.392918 193.97076-432.392918 432.392918s193.97076 432.392918 432.392918 432.392918c238.422158 0 432.391894-193.97076 432.391894-432.392918S750.422669 79.607082 512.000512 79.607082zM370.783233 386.133338m-102.33062 0a100 100 0 1 0 204.66124 0 100 100 0 1 0-204.66124 0ZM653.215744 386.133338m-102.33062 0a100 100 0 1 0 204.66124 0 100 100 0 1 0-204.66124 0ZM370.783233 637.866662m-102.33062 0a100 100 0 1 0 204.66124 0 100 100 0 1 0-204.66124 0ZM653.215744 637.866662m-102.33062 0a100 100 0 1 0 204.66124 0 100 100 0 1 0-204.66124 0Z" fill="#ecf0f1"></path></g></g></svg>