<?xml version="1.0" standalone="no"?><!DOCTYPE svg PUBLIC "-//W3C//DTD SVG 1.1//EN" "http://www.w3.org/Graphics/SVG/1.1/DTD/svg11.dtd"><svg xmlns:xlink="http://www.w3.org/1999/xlink" xmlns="http://www.w3.org/2000/svg" version="1.1" width="16" height="16" viewBox="0 0 16 16"><defs><style type="text/css"><![CDATA[

]]></style></defs><g class="transform-group"><g transform="scale(0.015625, 0.015625)"><path d="M724.884017 313.943179c-15.445784 3.990894-31.31624-4.866844-35.462676-19.814278l-12.270465-47.209208c-25.959232-93.755314-114.480334-149.46922-214.95263-123.437333-101.489462 26.329668-145.786341 118.202099-120.28555 210.383568l19.554358 84.8372c4.109598 14.911618-5.046946 30.250978-20.453844 34.277688-15.445784 3.990894-31.306007-4.856611-35.450397-19.815301l-19.517519-84.790128C252.252653 226.358401 314.94346 103.703897 447.239556 69.414953c131.775232-34.156938 251.420193 38.95522 285.768489 163.043377l12.317537 47.197952C749.447459 294.614971 740.32673 309.952284 724.884017 313.943179L724.884017 313.943179zM769.841951 958.677249 249.280972 958.677249c-63.779605 0-115.691929-50.218752-115.691929-111.947651L133.589043 510.812965c0-61.742203 51.9113-111.960954 115.691929-111.960954l520.56098 0c63.816444 0 115.691929 50.218752 115.691929 111.960954l0 335.916633C885.532857 908.458497 833.658396 958.677249 769.841951 958.677249L769.841951 958.677249zM827.711963 510.812965c0-30.864962-25.962302-55.986105-57.871035-55.986105L249.280972 454.826859c-31.872918 0-57.821917 25.121144-57.821917 55.986105l0 335.916633c0 30.840402 25.948999 55.972802 57.821917 55.972802l520.56098 0c31.908734 0 57.871035-25.133424 57.871035-55.972802L827.712987 510.812965 827.711963 510.812965zM509.584486 678.735465c-31.940456 0-57.856709-25.038256-57.856709-55.974849 0-30.912034 25.915229-55.972802 57.856709-55.972802 31.956829 0 57.82294 25.060769 57.82294 55.972802C567.406402 653.697209 541.540292 678.735465 509.584486 678.735465L509.584486 678.735465zM509.584486 790.730189c-15.965623 0-28.933983-12.529361-28.933983-28.022217L480.650503 650.760321c0-15.443737 12.968359-27.999704 28.933983-27.999704 15.965623 0 28.924773 12.55699 28.924773 27.999704l0 111.947651C538.508235 778.200828 525.549086 790.730189 509.584486 790.730189L509.584486 790.730189z" fill="#00bb9c"></path></g></g></svg>