<?xml version="1.0" standalone="no"?><!DOCTYPE svg PUBLIC "-//W3C//DTD SVG 1.1//EN" "http://www.w3.org/Graphics/SVG/1.1/DTD/svg11.dtd"><svg xmlns:xlink="http://www.w3.org/1999/xlink" xmlns="http://www.w3.org/2000/svg" version="1.1" width="16.953125" height="16" viewBox="0 0 16.953125 16"><defs><style type="text/css"><![CDATA[

]]></style></defs><g class="transform-group"><g transform="scale(0.015625, 0.015625)"><path d="M298.666667 402.285714l499.809524 0L798.47619 140.190476 768 182.857143l-6.095238 6.095238-6.095238-6.095238-304.761905-115.809524L298.666667 67.047619 298.666667 402.285714zM956.952381 871.619048l0 103.619048 0 48.761905-48.761905 0L201.142857 1024 152.380952 1024l0-48.761905 0-103.619048L115.809524 871.619048c-67.047619 0-115.809524-54.857143-115.809524-115.809524l0-304.761905c0-67.047619 54.857143-115.809524 115.809524-115.809524l109.714286 0L225.52381 36.571429 225.52381 0l36.571429 0 195.047619 0 0 0 6.095238 0 371.809524 48.761905 30.47619 6.095238 0 30.47619 0 249.904762 97.52381 0c67.047619 0 115.809524 54.857143 115.809524 115.809524l0 304.761905c0 67.047619-54.857143 115.809524-115.809524 115.809524L956.952381 871.619048zM249.904762 932.571429l615.619048 0 0-60.952381L249.904762 871.619048 249.904762 932.571429zM384 304.761905 731.428571 304.761905l0 24.380952L384 329.142857 384 304.761905zM384 225.52381l329.142857 0 0 24.380952L384 249.904762 384 225.52381zM384 158.47619l152.380952 0L536.380952 182.857143 384 182.857143 384 158.47619zM786.285714 109.714286l-36.571429 48.761905L542.47619 79.238095 786.285714 109.714286z" fill="#ecf0f1"></path></g></g></svg>