<?xml version="1.0" standalone="no"?><!DOCTYPE svg PUBLIC "-//W3C//DTD SVG 1.1//EN" "http://www.w3.org/Graphics/SVG/1.1/DTD/svg11.dtd"><svg xmlns:xlink="http://www.w3.org/1999/xlink" xmlns="http://www.w3.org/2000/svg" version="1.1" width="16.03125" height="16" viewBox="0 0 16.03125 16"><defs><style type="text/css"><![CDATA[

]]></style></defs><g class="transform-group"><g transform="scale(0.015625, 0.015625)"><path d="M641.216 127.36l0 403.52c0 19.328 15.808 32.128 32.32 32.128 7.872 0 15.936-2.944 22.464-9.472C709.76 539.712 723.648 525.888 737.344 512c13.824 13.824 27.712 27.648 41.472 41.472 6.464 6.528 14.592 9.472 22.464 9.472 16.512 0 32.256-12.8 32.256-32.128L833.536 127.36l96.192 0 0 673.216L592.192 800.576c-14.784 0-29.696 3.52-42.88 10.176-6.72 3.392-13.568 6.72-20.288 10.112L529.024 127.36 641.216 127.36zM801.472 530.816 801.472 127.36c0-17.728-14.336-32.064-32.064-32.064l-64.128 0c-17.728 0-32.064 14.4-32.064 32.064l0 403.52c21.44-21.312 42.752-42.752 64.128-64.128C758.72 488.064 780.16 509.504 801.472 530.816M961.792 133.184l0 667.392c0 17.664-14.336 32.064-32.064 32.064L592.192 832.64c-9.92 0-19.776 2.304-28.608 6.784-12.096 6.016-24.192 12.032-36.224 17.984-4.544 2.368-9.472 3.52-14.4 3.52-4.928 0-9.856-1.152-14.336-3.52-12.096-5.952-24.128-12.032-36.224-17.984-8.896-4.48-18.752-6.784-28.736-6.784L96.192 832.64c-17.664 0-32.064-14.4-32.064-32.064L64.128 133.184C26.816 146.432 0 181.696 0 223.488l0 577.088c0 53.184 43.072 96.192 96.192 96.192l320.64 0c0 17.664 14.4 32.064 32 32.064l128.256 0c17.664 0 32.064-14.4 32.064-32.064l320.576 0c53.12 0 96.128-43.008 96.128-96.192L1025.856 223.488C1025.856 181.696 999.104 146.432 961.792 133.184M81.152 120.448l0 679.808 352.576 0c14.848 0 25.792 3.712 39.04 10.368 6.784 3.328 3.968 6.848 16.256 10.24L489.024 120.448 81.152 120.448zM368.704 540.672 208.384 540.672c-8.896 0-16.064-3.456-16.064-12.352 0-8.832 7.168-12.288 16.064-12.288l160.32 0c8.832 0 16 3.456 16 12.288C384.704 537.216 377.536 540.672 368.704 540.672M368.704 478.912 208.384 478.912c-8.896 0-16.064-9.728-16.064-18.624 0-8.832 7.168-18.496 16.064-18.496l160.32 0c8.832 0 16 9.664 16 18.496C384.704 469.248 377.536 478.912 368.704 478.912M368.704 417.152 208.384 417.152c-8.896 0-16.064-9.728-16.064-18.56s7.168-18.624 16.064-18.624l160.32 0c8.832 0 16 9.792 16 18.624S377.536 417.152 368.704 417.152" fill="#ecf0f1"></path></g></g></svg>