<?xml version="1.0" standalone="no"?><!DOCTYPE svg PUBLIC "-//W3C//DTD SVG 1.1//EN" "http://www.w3.org/Graphics/SVG/1.1/DTD/svg11.dtd"><svg xmlns:xlink="http://www.w3.org/1999/xlink" xmlns="http://www.w3.org/2000/svg" version="1.1" width="19.515625" height="16" viewBox="0 0 19.515625 16"><defs><style type="text/css"><![CDATA[

]]></style></defs><g class="transform-group"><g transform="scale(0.015625, 0.015625)"><path d="M974.04878 349.658537l124.878049 54.946341 0 192.312195 0 12.487805 9.990244 9.990244 69.931707 79.921951 0 324.682927L1248.780488 1024 1248.780488 686.829268 1248.780488 674.341463l-9.990244-9.990244-69.931707-79.921951 0-199.804878 0-19.980488-17.482927-9.990244L974.04878 269.736585l-364.643902 117.385366 0 626.887805L974.04878 1014.009756 974.04878 349.658537zM259.746341 177.326829C234.770732 184.819512 207.297561 192.312195 182.321951 197.307317c14.985366 67.434146 7.492683 37.463415 24.97561 104.897561 17.482927-2.497561 34.965854-7.492683 52.44878-9.990244L259.746341 177.326829zM914.107317 369.639024l0 92.409756c-19.980488 4.995122-39.960976 7.492683-59.941463 12.487805l0-87.414634C871.64878 382.126829 891.629268 377.131707 914.107317 369.639024M701.814634 664.35122c0 24.97561 0 52.44878 0 77.42439l-44.956098 0 0-74.926829C671.843902 666.84878 686.829268 664.35122 701.814634 664.35122M799.219512 659.356098l0 84.917073-49.95122 0c-2.497561-52.44878 0-27.473171-2.497561-79.921951C761.756098 661.853659 781.736585 659.356098 799.219512 659.356098M914.107317 651.863415l0 89.912195-59.941463 0 0-87.414634C871.64878 654.360976 891.629268 651.863415 914.107317 651.863415M701.814634 544.468293l0 77.42439c-14.985366 2.497561-29.970732 2.497561-44.956098 4.995122l0-74.926829C671.843902 549.463415 686.829268 546.965854 701.814634 544.468293M799.219512 529.482927l0 84.917073c-17.482927 2.497561-34.965854 2.497561-49.95122 4.995122l0-79.921951C764.253659 534.478049 781.736585 531.980488 799.219512 529.482927M914.107317 512l0 89.912195c-17.482927 2.497561-34.965854 2.497561-52.44878 4.995122-7.492683-54.946341-4.995122-29.970732-12.487805-84.917073C869.15122 516.995122 891.629268 514.497561 914.107317 512M701.814634 427.082927l0 77.42439c-14.985366 2.497561-29.970732 4.995122-44.956098 7.492683l0-74.926829C671.843902 434.57561 686.829268 429.580488 701.814634 427.082927M799.219512 399.609756l0 84.917073c-17.482927 2.497561-34.965854 7.492683-49.95122 9.990244l0-79.921951C764.253659 409.6 781.736585 404.604878 799.219512 399.609756M414.595122 137.365854c-37.463415 9.990244-72.429268 19.980488-107.395122 27.473171 17.482927 72.429268 9.990244 39.960976 24.97561 112.390244 27.473171-4.995122 54.946341-9.990244 82.419512-17.482927L414.595122 137.365854zM127.37561 536.97561c-22.478049 2.497561-42.458537 2.497561-62.439024 4.995122 2.497561 64.936585 2.497561 34.965854 2.497561 102.4l59.941463 0C127.37561 609.404878 127.37561 571.941463 127.37561 536.97561M259.746341 529.482927c-24.97561 2.497561-47.453659 2.497561-69.931707 4.995122l0 109.892683 69.931707 0L259.746341 529.482927zM414.595122 519.492683c-27.473171 2.497561-54.946341 2.497561-82.419512 4.995122l0 119.882927 82.419512 0L414.595122 519.492683zM127.37561 374.634146c-19.980488 2.497561-39.960976 7.492683-59.941463 9.990244l0 102.4c19.980488-2.497561 39.960976-4.995122 59.941463-4.995122L127.37561 374.634146zM259.746341 352.156098c-24.97561 4.995122-47.453659 7.492683-69.931707 12.487805L189.814634 474.536585c22.478049-2.497561 44.956098-4.995122 69.931707-7.492683L259.746341 352.156098zM414.595122 327.180488c-32.468293 4.995122-64.936585 9.990244-97.404878 14.985366 9.990244 74.926829 4.995122 42.458537 14.985366 117.385366 27.473171-2.497561 54.946341-4.995122 82.419512-7.492683L414.595122 327.180488zM127.37561 212.292683C99.902439 219.785366 72.429268 227.278049 47.453659 234.770732c14.985366 62.439024 7.492683 34.965854 22.478049 94.907317 19.980488-4.995122 39.960976-7.492683 59.941463-12.487805L129.873171 212.292683zM497.014634 0l237.268293 122.380488 17.482927 9.990244 0 19.980488 0 164.839024-72.429268 0L679.336585 174.829268l-182.321951-94.907317 0 931.590244L0 1011.512195 0 159.843902 497.014634 0z" fill="#ecf0f1"></path></g></g></svg>