<?xml version="1.0" standalone="no"?><!DOCTYPE svg PUBLIC "-//W3C//DTD SVG 1.1//EN" "http://www.w3.org/Graphics/SVG/1.1/DTD/svg11.dtd"><svg xmlns:xlink="http://www.w3.org/1999/xlink" xmlns="http://www.w3.org/2000/svg" version="1.1" width="16" height="16" viewBox="0 0 16 16"><defs><style type="text/css"><![CDATA[

]]></style></defs><g class="transform-group"><g transform="scale(0.015625, 0.015625)"><path d="M304.629 793.468c-8.19 0-14.782-6.63-14.782-14.77L289.847 571.279c0-8.23 6.64-14.78 14.782-14.78 8.185 0 14.82 6.55 14.82 14.78l0 207.459C319.452 786.838 312.814 793.468 304.629 793.468L304.629 793.468zM719.418 793.468c-8.15 0-14.83-6.63-14.83-14.77L704.588 571.279c0-8.23 6.68-14.78 14.83-14.78 8.22 0 14.82 6.55 14.82 14.78l0 207.459C734.188 786.838 727.598 793.468 719.418 793.468L719.418 793.468zM823.098 793.468 200.945 793.468c-8.187 0-14.782-6.63-14.782-14.77 0-8.24 6.637-14.88 14.782-14.88l622.193 0c8.23 0 14.78 6.64 14.78 14.88C837.878 786.838 831.328 793.468 823.098 793.468L823.098 793.468zM852.698 437.899c0 32.745-26.55 59.3-59.25 59.3l-29.65 0c-17.66 0-33.59-7.79-44.43-20.18-10.84 12.39-26.73 20.18-44.43 20.18l-14.83 0c-17.69 0-33.58-7.79-44.43-20.18-10.84 12.39-26.68 20.18-44.43 20.18l-14.82 0c-17.7 0-33.59-7.79-44.432-20.18-10.842 12.39-26.685 20.18-44.43 20.18l-14.78 0c-17.745 0-33.587-7.79-44.43-20.18-10.887 12.39-26.73 20.18-44.475 20.18l-14.825 0c-17.745 0-33.59-7.79-44.43-20.18-10.842 12.39-26.73 20.18-44.43 20.18l-29.65 0c-32.702 0-59.255-26.555-59.255-59.3l2.965-14.78 11.86-103.685c0-49.125 39.782-88.905 88.857-88.905l474.039 0c49.08 0 88.865 39.78 88.865 88.905l14.82 103.685L852.697 437.899 852.698 437.899zM808.278 319.434c0-32.75-26.56-59.26-59.26-59.26L275.024 260.174c-32.747 0-59.255 26.51-59.255 59.26l-14.825 103.685 0 14.78c0 16.375 13.275 29.65 29.605 29.65l29.65 0c16.37 0 29.645-13.275 29.645-29.65l0-14.78 0-44.43c0-8.23 6.64-14.87 14.782-14.87 8.185 0 14.822 6.64 14.822 14.87l0 44.43 0 14.78c0 16.375 13.277 29.65 29.607 29.65l14.78 0c16.372 0 29.605-13.275 29.605-29.65l0-14.78 0-44.43c0-8.23 6.64-14.87 14.827-14.87 8.185 0 14.82 6.64 14.82 14.87l0 44.43 0 14.78c0 16.375 13.277 29.65 29.607 29.65l14.777 0c16.375 0 29.607-13.275 29.607-29.65l0-14.78 0-44.43c0-8.23 6.637-14.87 14.825-14.87 8.187 0 14.782 6.64 14.782 14.87l0 44.43 0 14.78c0 16.375 13.275 29.65 29.6 29.65l14.83 0c16.37 0 29.65-13.275 29.65-29.65l0-14.78 0-44.43c0-8.23 6.635-14.87 14.825-14.87 8.23 0 14.78 6.64 14.78 14.87l0 44.43 0 14.78c0 16.375 13.275 29.65 29.645 29.65l14.825 0c16.33 0 29.605-13.275 29.605-29.65l0-14.78 0-44.43c0-8.23 6.685-14.87 14.825-14.87 8.23 0 14.825 6.64 14.825 14.87l0 44.43 0 14.78c0 16.375 13.275 29.65 29.605 29.65l29.655 0c16.325 0 29.645-13.275 29.645-29.65l0-14.78L808.278 319.434 808.278 319.434zM630.508 763.818l0-118.5c0-8.24-6.55-14.87-14.78-14.87l-44.48 0c-8.14 0-14.82 6.63-14.82 14.87l0 118.5-29.61 0 0-133.37c0-16.33 13.28-29.57 29.61-29.57l74.08 0c16.37 0 29.65 13.24 29.65 29.57l0 133.37L630.508 763.818 630.508 763.818zM600.898 734.268c-8.18 0-14.82-6.64-14.82-14.88 0-8.23 6.64-14.78 14.82-14.78 8.23 0 14.83 6.55 14.83 14.78C615.728 727.628 609.088 734.268 600.898 734.268L600.898 734.268zM512 999.168c-276.67456 0-501.76-218.5472-501.76-487.168S235.32544 24.832 512 24.832c276.66944 0 501.76 218.54208 501.76 487.168S788.66944 999.168 512 999.168zM512 55.552C252.26752 55.552 40.96 260.31616 40.96 512s211.30752 456.448 471.04 456.448c259.73248 0 471.04-204.76416 471.04-456.448S771.73248 55.552 512 55.552z" fill="#ecf0f1"></path></g></g></svg>