<?xml version="1.0" standalone="no"?><!DOCTYPE svg PUBLIC "-//W3C//DTD SVG 1.1//EN" "http://www.w3.org/Graphics/SVG/1.1/DTD/svg11.dtd"><svg xmlns:xlink="http://www.w3.org/1999/xlink" xmlns="http://www.w3.org/2000/svg" version="1.1" width="16" height="16" viewBox="0 0 16 16"><defs><style type="text/css"><![CDATA[

]]></style></defs><g class="transform-group"><g transform="scale(0.015625, 0.015625)"><path d="M121.034099 109.444645l48.319495 0 0 789.047874-48.319495 0 0-789.047874ZM862.931093 110.467951l48.319495 0 0 789.047874-48.319495 0 0-789.047874ZM121.034099 150.47513l789.04685 0 0 48.319495-789.04685 0 0-48.319495ZM121.034099 808.971645l789.04685 0 0 48.319495-789.04685 0 0-48.319495ZM269.412474 199.306278l48.319495 0 0 612.397594-48.319495 0 0-612.397594ZM198.80844 199.306278l48.319495 0 0 612.397594-48.319495 0 0-612.397594ZM443.597609 199.306278l48.318472 0 0 612.397594-48.318472 0 0-612.397594ZM530.690176 198.282972l48.319495 0 0 612.395548-48.319495 0 0-612.395548ZM617.782743 198.282972l48.319495 0 0 612.395548-48.319495 0 0-612.395548ZM704.874287 199.307302l48.319495 0 0 612.396571-48.319495 0 0-612.396571ZM791.966854 199.307302l48.319495 0 0 612.396571-48.319495 0 0-612.396571ZM356.506065 198.282972l48.319495 0 0 612.395548-48.319495 0 0-612.395548Z" fill="#ecf0f1"></path></g></g></svg>