<?xml version="1.0" standalone="no"?><!DOCTYPE svg PUBLIC "-//W3C//DTD SVG 1.1//EN" "http://www.w3.org/Graphics/SVG/1.1/DTD/svg11.dtd"><svg xmlns:xlink="http://www.w3.org/1999/xlink" xmlns="http://www.w3.org/2000/svg" version="1.1" width="16" height="16" viewBox="0 0 16 16"><defs><style type="text/css"><![CDATA[

]]></style></defs><g class="transform-group"><g transform="scale(0.015625, 0.015625)"><path d="M987.638861 978.528366c-0.730641-19.487843-2.795673-38.817074-6.071276-58.036811-6.665817-39.108716-18.459421-76.607772-35.379789-112.471584-29.575596-62.683644-71.575152-115.630531-125.583207-158.991084-42.497906-34.119075-89.719394-59.654658-141.531434-76.644611-3.247974-1.065262-6.496971-2.130524-10.123568-3.319605 0.831948-0.469698 1.24434-0.729617 1.679245-0.944512 23.275099-11.482519 44.731784-25.698289 64.326051-42.72508 28.488845-24.755824 51.674916-53.737902 69.096704-87.224574 24.550139-47.191812 35.544541-97.400331 33.056883-150.568251-0.75213-16.081257-2.730181-31.989575-6.158257-47.703465-11.877515-54.448076-37.237089-101.769848-75.556836-142.157697-16.702404-17.603937-35.368532-32.872688-55.854099-45.890166-43.741223-27.795043-91.542926-43.231617-143.198399-46.75486-14.303774-0.975211-28.616758-0.800225-42.931788 0.278339-16.047488 1.209548-31.907711 3.569292-47.53462 7.334036-52.197826 12.576433-97.954963 37.216623-137.111774 73.945129-25.514093 23.931039-46.211485 51.562353-61.878303 82.85301-23.098068 46.13269-33.44881 94.997608-30.995945 146.571217 0.673335 14.157441 2.309602 28.175713 5.033643 42.077328 10.722202 54.715159 35.18536 102.513792 72.747861 143.583163 25.168216 27.517727 54.617945 49.465598 88.023776 66.078974 0.693802 0.344854 1.63422 0.417509 1.963725 1.429559-10.590196 3.303232-21.062711 6.821359-31.370475 10.815323-10.400884 4.030803-20.660552 8.394181-30.731932 13.190417-57.110719 27.195386-106.470917 64.606437-147.993612 112.338554-22.231327 25.556049-41.276079 53.30402-57.159838 83.216283-19.637246 36.980239-33.725102 75.977415-42.2298 116.973108-3.737114 18.013259-6.418176 36.189224-7.704472 54.552453-0.488117 6.973832-1.065262 13.948687-1.261737 20.931728-0.180102 6.395664-0.815575 12.836353 0.308015 19.200294 2.170432 12.296047 13.941524 20.951171 26.932396 19.940145 12.276604-0.954745 22.282492-11.378142 22.648836-23.585161 0.24457-8.15575 0.37146-16.311501 0.818645-24.464181 0.666172-12.142551 1.916653-24.222681 3.765767-36.229133 3.744277-24.304546 9.641591-48.087205 17.892509-71.26816 18.925025-53.175083 47.940872-100.148931 86.841857-141.012617 25.832342-27.136034 54.943356-50.17168 87.250156-69.148893 27.754111-16.303314 57.044204-29.091572 87.881536-38.343283 21.794375-6.538927 43.963281-11.239995 66.555835-13.985526 14.555507-1.769296 29.140691-2.994194 43.814901-2.949168 0.972141-0.01842 1.823532-0.26913 2.708692-0.173962 5.469572 0.088004 7.868201 0.061398 8.562003-0.064468 0.633427 0.034792 1.26583 0.096191 1.89414 0.239454 5.15951 0.022513 10.310833 0.146333 15.470343 0.420579 17.222243 0.914836 34.294061 2.955308 51.262524 6.025227 35.414581 6.405897 69.344345 17.398252 101.754498 32.998555 53.107545 25.563212 98.510618 61.040215 136.066979 106.47808 32.69054 39.551808 56.763818 83.824127 72.209602 132.767839 8.061606 25.544793 13.31526 51.673893 16.045441 78.30953 1.350764 13.178137 1.772366 26.409486 2.000564 39.647999 0.239454 13.872962 11.304464 24.480554 25.405623 24.387433 13.531178-0.089028 24.648376-11.180644 24.667819-24.694425C987.973482 990.017024 987.853755 984.275253 987.638861 978.528366zM580.864414 545.32192c-14.129812 2.512217-28.39163 3.599991-42.718941 4.01443-0.442068 0.01228-1.51347 0.01228-2.615571 0.102331-0.977257-0.071631-2.192945-0.054235-2.535753-0.054235-2.174526-0.001023-4.333702 0.181125-6.434549-0.11768-9.709129 0.533143-18.631336-1.585101-27.864628-2.910283-26.550703-3.811816-51.726082-12.036128-75.702146-23.927969-10.301623-5.109368-20.12127-11.092639-29.608342-17.629519-21.931498-15.112186-41.004903-33.209356-57.102532-54.414307-17.286712-22.771633-30.306236-47.75463-38.910195-75.061556-6.500041-20.630876-10.140964-41.751916-11.119245-63.301721-0.653893-14.400988 0.070608-28.801976 2.041496-43.10575 4.149507-30.119995 13.426801-58.58121 28.154223-85.180008 14.750959-26.641777 33.726126-49.879014 57.011458-69.570495 20.527522-17.36039 43.208081-31.149441 68.109214-41.268916 26.408463-10.731412 53.915957-16.676821 82.337263-18.116613 10.877745-0.550539 21.822005-0.490164 32.705889 0.464581 11.788487 1.034563 23.480784 2.728134 35.047214 5.305843 25.495674 5.681396 49.555649 15.032368 72.073502 28.249391 20.221554 11.869329 38.504966 26.198685 54.697763 43.233664 9.677407 10.17985 18.486026 21.008476 26.347065 32.614815 13.833053 20.425192 24.349571 42.436508 31.532157 66.058508 6.117324 20.1182 9.525957 40.693818 10.43363 61.657268 0.438998 10.137895 0.062422 20.294209-0.808412 30.438243-1.100054 12.817933-3.13234 25.463951-6.227842 37.926798-5.514597 22.203698-13.921058 43.265386-25.369807 63.101153-14.509459 25.13854-32.768311 47.15088-54.951543 65.86715-16.764825 14.145162-35.031864 25.964348-54.900378 35.332716C624.161522 534.60995 602.976014 541.390377 580.864414 545.32192z" fill="#00bb9c"></path></g></g></svg>