<?xml version="1.0" standalone="no"?><!DOCTYPE svg PUBLIC "-//W3C//DTD SVG 1.1//EN" "http://www.w3.org/Graphics/SVG/1.1/DTD/svg11.dtd"><svg xmlns:xlink="http://www.w3.org/1999/xlink" xmlns="http://www.w3.org/2000/svg" version="1.1" width="16" height="16" viewBox="0 0 16 16"><defs><style type="text/css"><![CDATA[

]]></style></defs><g class="transform-group"><g transform="scale(0.015625, 0.015625)"><path d="M537.178961 928.060951l-353.338421-59.378365L183.84054 390.292054l353.338421 49.482995L537.178961 928.060951zM224.772788 834.053903l271.473925 45.62206L496.246713 475.373825l-271.473925-38.017872L224.772788 834.053903zM531.246855 928.077324 531.246855 439.791421l353.338421-49.482995 0 478.389508L531.246855 928.077324zM572.179103 475.390197l0 404.302139 271.473925-45.62206L843.653027 437.372326 572.179103 475.390197zM452.990536 255.429507l167.999249 0 0 200.568015-167.999249 0 0-200.568015ZM508.260327 485.143329l-1.713015 0-1.688455-0.284479-363.008664-61.181431c-17.075911-1.092891-30.633694-15.332197-30.633694-32.67826l0-192.381565c0-18.056238 14.68956-32.745798 32.745798-32.745798l1.9934 0 364.760564 71.722508c16.912182 1.260713 30.289863 15.424294 30.289863 32.654724l0 182.148503C541.006126 470.453768 526.316565 485.143329 508.260327 485.143329zM152.14977 383.904577l347.924107 58.638515 0-165.325349-347.924107-68.412113L152.14977 383.904577zM550.982338 485.143329l-1.713015 0c-18.056238 0-32.745798-14.68956-32.745798-32.745798l0-182.148503c0-17.229406 13.375635-31.394011 30.289863-32.654724l364.760564-71.722508 1.992377 0c18.056238 0 32.745798 14.68956 32.745798 32.745798l0 192.381565c0 17.346063-13.557784 31.585369-30.633694 32.67826L550.982338 485.143329zM557.455773 277.217742l0 165.325349 347.924107-58.638515L905.37988 208.80563 557.455773 277.217742zM516.056897 261.919315 516.056897 261.919315c-4.676509 0-9.477862-1.528819-13.43908-4.490268l-387.702066-45.057195 0-18.226107c0-17.640776 14.021342-32.067346 31.505551-32.722262l488.351394-48.118927 2.824325-0.00614c0.75213-0.004093 1.535983-0.008186 2.352581-0.008186 7.880481 0 17.821901 0.421602 31.836079 3.53757l246.795872 50.625004 4.650927 6.099928c3.045359 3.994987 12.443403 18.119683 5.51255 32.119535-3.837398 7.749498-11.374048 12.533454-20.34742 12.995989l-381.01476 40.969087-0.228197 0c-0.327458 0.101307-0.762363 0.246617-1.111311 0.363274C523.759323 260.765025 520.306688 261.919315 516.056897 261.919315zM275.542078 189.831486l248.897743 28.925796c0.160659-0.00921 0.322341-0.016373 0.487094-0.023536l288.645003-31.036877-150.533458-30.882358c-10.196223-2.27788-17.121959-2.592035-23.088858-2.592035-0.741897 0-1.452071 0.004093-2.13564 0.008186-0.340761 0.001023-0.676405 0.00307-1.004887 0.004093L275.542078 189.831486z" fill="#ecf0f1"></path></g></g></svg>