<?xml version="1.0" standalone="no"?><!DOCTYPE svg PUBLIC "-//W3C//DTD SVG 1.1//EN" "http://www.w3.org/Graphics/SVG/1.1/DTD/svg11.dtd"><svg xmlns:xlink="http://www.w3.org/1999/xlink" xmlns="http://www.w3.org/2000/svg" version="1.1" width="16" height="16" viewBox="0 0 16 16"><defs><style type="text/css"><![CDATA[

]]></style></defs><g class="transform-group"><g transform="scale(0.015625, 0.015625)"><path d="M914.241026 52.879849C914.605825 52.867049 719.27473-0.152908 647.490043 0.000691 487.818332 0.371891 435.201573 83.693172 276.269698 83.905652 214.899052 83.987571 98.726696 19.025259 73.559431 4.522914c-1.460475-1.132795-3.063028-2.067192-4.769262-2.77759-0.07936-0.04736-0.12672-0.07552-0.12672-0.07552l0.00512 0.02688c-4.051185-1.655033-8.647647-2.068472-13.199309-0.846077L15.384933 11.587207C4.316815 14.554236-2.252119 25.933393 0.714909 36.99639l260.187168 971.626376c2.963188 11.062998 14.342346 17.631932 25.414303 14.661064L326.400708 1012.548511c11.068118-2.968308 17.637052-14.347466 14.670024-25.410463L103.947796 101.647664l-0.06016-0.259839c0 0 115.975238 65.59975 172.492142 65.524231 130.035984-0.17408 242.736995-83.330243 373.378417-83.504322 57.160742-0.0768 207.549929 41.226083 207.549929 41.226083l68.795898 350.764743c0 0-134.366208-60.189211-192.905505-60.111131-131.14958 0.17536-244.171869 83.332803-373.378417 83.505602-15.819459 0.02176-35.274106-2.81343-55.08203-6.903013l22.408875 83.528641c18.942647 3.886065 36.918899 6.362856 51.923002 6.342376 157.915558-0.2112 193.946141-83.252163 354.239929-83.467202 71.544047-0.096 290.602412 82.605765 290.602412 82.605765L914.241026 52.879849z" fill="#ecf0f1"></path></g></g></svg>